<svg xmlns="http://www.w3.org/2000/svg" width="16" height="16" viewBox="0 0 16 16">
    <path data-name="Path 211796" d="M41.662 17.25h-5.077a1.357 1.357 0 0 0-1.356 1.356v10.288a1.357 1.357 0 0 0 1.356 1.356h5.078a1.357 1.357 0 0 0 1.356-1.356V18.606a1.357 1.357 0 0 0-1.357-1.356zm-1.013.487v.314a.24.24 0 0 1-.24.24h-2.571a.24.24 0 0 1-.24-.24v-.314zm1.882 11.157a.87.87 0 0 1-.869.869h-5.077a.87.87 0 0 1-.869-.869V18.606a.87.87 0 0 1 .869-.869h.526v.314a.727.727 0 0 0 .726.726h2.572a.727.727 0 0 0 .726-.726v-.314h.527a.87.87 0 0 1 .869.869z" transform="translate(-31.18 -15.574)" style="fill:#1274c0;stroke:#1274c0;stroke-width:.4px"/>
    <path data-name="Path 211797" d="M53.964 98.917h-2.992a.243.243 0 0 0 0 .487h2.992a.243.243 0 1 0 0-.487z" transform="translate(-44.525 -85.887)" style="fill:#1274c0;stroke:#1274c0;stroke-width:.4px"/>
</svg>
